# xmcd
#
# Track frame offsets: 
#        150
#        13850
#        26762
#        39037
#        50815
#        61450
#        75807
#        90915
#        106332
#        118677
#
# Disc length: 1804 seconds
#
# Revision: 2
# Processed by: cddbd v1.4PL0 Copyright (c) Steve Scherf et al.
# Submitted via: ExactAudioCopy v0.95a3
#
DISCID=6f070a0a
DTITLE=Merle Haggard - Super Hits - Vol. 3
DYEAR=1995
DGENRE=Country
TTITLE0=Big City
TTITLE1=Sing Me Back Home
TTITLE2=Workin' Man Blues
TTITLE3=Carolyn
TTITLE4=Someday We'll Look Back
TTITLE5=Branded Man
TTITLE6=Chill Factor
TTITLE7=Twinkle Twinkle Lucky Star
TTITLE8=Man From Another Time
TTITLE9=We Never Touch At All
EXTD=
EXTT0=
EXTT1=
EXTT2=
EXTT3=
EXTT4=
EXTT5=
EXTT6=
EXTT7=
EXTT8=
EXTT9=
PLAYORDER=
